# xmcd
#
# Track frame offsets: 
#        150
#        19056
#        35103
#        47546
#        60872
#        90519
#        105865
#        118860
#        132973
#        145964
#        160017
#        171981
#        184655
#        197006
#        209381
#        222175
#
# Disc length: 3149 seconds
#
# Revision: 0
# Processed by: cddbd v1.5.2PL0 Copyright (c) Steve Scherf et al.
# Submitted via: ExactAudioCopyFreeDBPlugin 1.0
#
DISCID=d90c4b10
DTITLE=100 Proof Aged In Soul - Somebody's Been Sleeping In My Bed (20
DTITLE=13 Remastered)
DYEAR=1971
DGENRE=Soul
TTITLE0=Somebody's Been Sleeping
TTITLE1=Love Is Sweeter (The Second Time Around)
TTITLE2=One Man's Leftovers (Is Another Man's Feast)
TTITLE3=I've Come To Save You
TTITLE4=Ain't That Lovin' You (For More Reasons Than One)
TTITLE5=Not Enough Love To Satisfy
TTITLE6=Age Ain't Nothing But A Number
TTITLE7=She's Not Just Another Woman
TTITLE8=Too Many Cooks (Spoil The Soup)
TTITLE9=I Can't Sit And Wait (Til Johnny Comes Marching Home)
TTITLE10=Backtrack
TTITLE11=Somebody's Been Sleeping [US Single Version] (bonus Track)
TTITLE12=Driveway (bonus Track)
TTITLE13=If I Could See the Light in the Window [Version 1] (bonus Tra
TTITLE13=ck)
TTITLE14=90 Day Freeze (On Her Love) (bonus Track)
TTITLE15=Somebody's Been Sleeping [UK Single Edit] (bonus Track)
EXTD=
EXTT0=
EXTT1=
EXTT2=
EXTT3=
EXTT4=
EXTT5=
EXTT6=
EXTT7=
EXTT8=
EXTT9=
EXTT10=
EXTT11=
EXTT12=
EXTT13=
EXTT14=
EXTT15=
PLAYORDER=
